<svg width="118" height="50" viewBox="0 0 118 50" fill="none" xmlns="http://www.w3.org/2000/svg">
<path d="M21.2476 49.0588C15.2352 48.8709 9.0349 47.0859 5.08925 42.9524L3.39827 44.0797L3.11645 43.61L4.71351 42.4827C3.49223 41.1675 2.55279 39.6643 1.89519 37.9733C-0.735249 31.2094 2.27096 24.0696 4.24379 20.4058C12.0411 6.22025 29.3269 -1.9529 45.2974 0.959369C46.7065 1.2412 48.2096 1.61697 49.1491 2.7443C50.3703 4.24741 49.9946 6.50208 49.6188 7.62941C48.0217 12.8903 43.4184 16.4601 38.4394 19.8421L37.9697 20.124C40.5062 21.1573 42.6669 22.6605 43.9821 24.5393C46.4247 27.9213 46.7065 32.6185 45.0155 36.7521C49.149 37.0339 53.2826 36.94 57.3222 35.7187C63.8983 33.7459 70.4744 27.5455 69.8168 20.03V19.8421C69.7228 18.9966 69.6289 17.9632 70.2865 17.2117C70.9441 16.4601 72.0714 16.4601 73.1048 16.5541C88.0419 17.8693 103.073 19.7482 117.916 22.0028L117.822 22.5665C102.979 20.3119 87.948 18.433 73.1048 17.1178C72.1654 17.0238 71.2259 17.0238 70.6623 17.5875C70.1926 18.1511 70.2865 18.9966 70.3804 19.7482V19.9361C71.038 27.7334 64.2741 34.1216 57.5101 36.1884C53.3766 37.4097 49.0551 37.5976 44.8277 37.2218C44.264 38.537 43.4185 39.8522 42.3851 40.9796C38.0636 45.9586 31.4875 47.8375 26.6964 48.4951C24.8175 48.9648 23.0326 49.0588 21.2476 49.0588ZM5.46505 42.6705C10.538 47.8375 19.1809 49.2466 26.5086 48.2132C31.2058 47.5556 37.6879 45.6768 41.8214 40.8856C42.7609 39.8522 43.5124 38.6309 44.0761 37.4097C41.0698 37.1278 38.1576 36.6581 35.3393 36.2824C32.2391 35.8126 28.6692 35.249 25.757 33.3701C24.7236 32.7125 23.6902 31.773 22.9386 30.6457L5.46505 42.6705ZM39.5667 0.959369C25.5691 0.583593 11.4775 8.38095 4.71351 20.6876C2.74068 24.2575 -0.171585 31.2094 2.36491 37.7855C3.02251 39.4765 3.96192 40.9795 5.08925 42.2008L22.6568 30.082C21.7174 28.485 21.1537 26.5122 21.6234 24.6333C22.8447 19.9361 28.8571 18.2451 34.118 19.1845C35.2453 19.3724 36.1848 19.6542 37.2181 20.03L37.9697 19.4664C42.8548 16.0844 47.458 12.6084 48.9612 7.53546C49.243 6.50207 49.6188 4.52923 48.5854 3.12007C47.8339 2.08669 46.4247 1.80487 45.1095 1.52304C43.2306 1.14726 41.4456 0.959369 39.5667 0.959369ZM23.4083 30.2699C24.1599 31.3033 25.0994 32.2428 26.1328 32.9004C28.9511 34.6853 32.427 35.249 35.5272 35.7187C38.3455 36.1884 41.3517 36.6581 44.3579 36.846C46.0489 32.8064 45.7671 28.2032 43.5124 25.0091C42.1032 23.1302 40.0365 21.6271 37.406 20.5937L23.4083 30.2699ZM31.6755 19.4664C27.354 19.3724 23.1265 21.0634 22.1871 24.7272C21.7174 26.5122 22.1871 28.2971 23.1265 29.8002L36.6545 20.4058C35.809 20.124 34.9635 19.9361 34.0241 19.7482C33.2725 19.5603 32.427 19.4664 31.6755 19.4664Z" fill="#5C5C5F"/>
</svg>
