<svg width="158" height="32" viewBox="0 0 158 32" fill="none" xmlns="http://www.w3.org/2000/svg">
<path d="M55.8789 31.8584C50.4301 31.8584 44.8874 31.3887 39.5326 30.4493C28.3533 31.5766 17.08 31.1069 6.18244 28.8522C4.49145 28.4764 2.61257 28.0067 1.48524 26.5976C0.827631 25.7521 0.733692 24.4368 1.10947 23.4035C1.3913 22.6519 2.04891 22.0882 2.80047 21.9943L2.8944 22.558C2.14285 22.6519 1.76707 23.3095 1.67312 23.6853C1.29735 24.5308 1.48524 25.6581 1.95496 26.3157C2.8944 27.6309 4.67934 28.1007 6.27639 28.3825C16.5163 30.5432 27.132 31.1069 37.5598 30.1674C36.1506 29.8856 34.8354 29.6038 33.5202 29.228C30.1382 28.3825 26.5683 27.2552 23.9379 24.9066C21.4014 22.6519 19.7104 18.5183 21.3074 15.1364C22.3408 12.8817 24.5955 11.3786 26.8501 10.1573C40.566 2.64181 56.6304 -0.834124 72.2251 0.293205C75.6071 0.575038 79.3649 1.04476 82.3711 3.11153C85.0955 4.99041 87.3502 8.93606 86.0349 12.5059C85.5652 13.7272 84.8136 14.7606 83.8742 15.6061C84.3439 15.9819 84.9076 16.3577 85.2834 16.8274C110.836 26.0339 131.222 25.9399 157.62 17.1092L157.808 17.6729C131.598 26.4097 111.306 26.5976 86.1289 17.7668C86.5046 18.2365 86.8804 18.8002 87.1622 19.4578V19.5517C87.8199 24.9066 81.8074 28.6643 75.5132 30.0735C69.125 31.2008 62.455 31.8584 55.8789 31.8584ZM41.5054 30.2614C52.7787 32.0463 64.3338 31.6705 75.4192 29.3219C81.4317 28.0067 87.2562 24.5308 86.5986 19.4578C86.2228 18.6123 85.6592 17.8608 85.0015 17.2031C84.25 16.9213 83.4984 16.6395 82.8408 16.3577C81.9014 17.0153 80.962 17.5789 79.9286 18.1426C68.0916 24.5308 54.9394 28.5704 41.5054 30.2614ZM66.3067 0.575026C52.6848 0.575026 38.9689 4.05096 27.132 10.5331C25.0652 11.6604 22.8106 13.0696 21.7772 15.2303C20.2741 18.4244 21.8711 22.2761 24.2197 24.4369C26.7562 26.7855 30.2321 27.8188 33.6141 28.6643C35.5869 29.1341 37.5598 29.5098 39.5326 29.8856C53.5303 28.3825 67.34 24.249 79.6467 17.6729C80.4922 17.2031 81.4317 16.7334 82.1832 16.1698C80.5862 15.6061 78.9891 14.9485 77.3921 14.2909C77.2981 14.1969 77.2042 14.103 77.2042 14.009C77.2042 13.9151 77.2981 13.8211 77.486 13.8211C79.5528 13.6333 81.6195 14.1969 83.4045 15.3243C84.3439 14.4788 85.0955 13.5393 85.5652 12.318C86.7865 9.02999 84.6258 5.36619 82.0893 3.58125C79.177 1.60842 75.6071 1.13871 72.2251 0.856876C70.2523 0.668988 68.2795 0.575026 66.3067 0.575026ZM83.3105 15.9819C83.4984 16.0758 83.6863 16.0758 83.8742 16.1698C83.7803 16.0758 83.5924 15.9819 83.4045 15.8879C83.4045 15.9819 83.4045 15.9819 83.3105 15.9819ZM78.8952 14.2909C80.2104 14.8545 81.4317 15.3243 82.7469 15.794C82.8408 15.7 82.9348 15.7 82.9348 15.6061C81.7135 14.8545 80.3043 14.3848 78.8952 14.2909Z" fill="#5C5C5F"/>
</svg>
